<svg version="1.1" xmlns="http://www.w3.org/2000/svg" xmlns:xlink="http://www.w3.org/1999/xlink" preserveAspectRatio="xMidYMid meet" viewBox="0 0 500 500" width="500" height="500">
    <defs>
        <path d="M499.79 260.3L499.17 270.49L498.15 280.57L496.73 290.53L494.92 300.36L492.73 310.05L490.17 319.59L487.25 328.98L483.97 338.21L480.34 347.27L476.38 356.15L472.08 364.85L467.46 373.35L462.52 381.65L457.28 389.74L451.74 397.61L445.91 405.25L439.79 412.66L433.4 419.83L426.74 426.74L419.83 433.4L412.66 439.79L405.25 445.91L397.61 451.74L389.74 457.28L381.65 462.52L373.35 467.46L364.85 472.08L356.15 476.38L347.27 480.34L338.21 483.97L328.98 487.25L319.59 490.17L310.05 492.73L300.36 494.92L290.53 496.73L280.57 498.15L270.49 499.17L260.3 499.79L250 500L239.7 499.79L229.51 499.17L219.43 498.15L209.47 496.73L199.64 494.92L189.95 492.73L180.41 490.17L171.02 487.25L161.79 483.97L152.73 480.34L143.85 476.38L135.15 472.08L126.65 467.46L118.35 462.52L110.26 457.28L102.39 451.74L94.75 445.91L87.34 439.79L80.17 433.4L73.26 426.74L66.6 419.83L60.21 412.66L54.09 405.25L48.26 397.61L42.72 389.74L37.48 381.65L32.54 373.35L27.92 364.85L23.62 356.15L19.66 347.27L16.03 338.21L12.75 328.98L9.83 319.59L7.27 310.05L5.08 300.36L3.27 290.53L1.85 280.57L0.83 270.49L0.21 260.3L0 250L0.21 239.7L0.83 229.51L1.85 219.43L3.27 209.47L5.08 199.64L7.27 189.95L9.83 180.41L12.75 171.02L16.03 161.79L19.66 152.73L23.62 143.85L27.92 135.15L32.54 126.65L37.48 118.35L42.72 110.26L48.26 102.39L54.09 94.75L60.21 87.34L66.6 80.17L73.26 73.26L80.17 66.6L87.34 60.21L94.75 54.09L102.39 48.26L110.26 42.72L118.35 37.48L126.65 32.54L135.15 27.92L143.85 23.62L152.73 19.66L161.79 16.03L171.02 12.75L180.41 9.83L189.95 7.27L199.64 5.08L209.47 3.27L219.43 1.85L229.51 0.83L239.7 0.21L250 0L260.3 0.21L270.49 0.83L280.57 1.85L290.53 3.27L300.36 5.08L310.05 7.27L319.59 9.83L328.98 12.75L338.21 16.03L347.27 19.66L356.15 23.62L364.85 27.92L373.35 32.54L381.65 37.48L389.74 42.72L397.61 48.26L405.25 54.09L412.66 60.21L419.83 66.6L426.74 73.26L433.4 80.17L439.79 87.34L445.91 94.75L451.74 102.39L457.28 110.26L462.52 118.35L467.46 126.65L472.08 135.15L476.38 143.85L480.34 152.73L483.97 161.79L487.25 171.02L490.17 180.41L492.73 189.95L494.92 199.64L496.73 209.47L498.15 219.43L499.17 229.51L499.79 239.7L500 250L500 250L499.79 260.3Z"
              id="g5L2Wm362N"></path>
        <path d="M275 450C275 463.8 263.8 475 250 475C236.2 475 225 463.8 225 450C225 436.2 236.2 425 250 425C263.8 425 275 436.2 275 450Z" id="aE2zNVVj"></path>
        <path d="M275 50C275 63.8 263.8 75 250 75C236.2 75 225 63.8 225 50C225 36.2 236.2 25 250 25C263.8 25 275 36.2 275 50Z" id="b5HMPKSQX"></path>
        <path d="M313.43 310.43L447.22 310.43L447.22 345.43L264.22 345.43L264.22 310.43L397.37 196.35L264.22 196.35L264.22 162.43L447.22 162.43L447.22 196.35L313.43 310.43ZM204.7 162.53L206.97 162.77L209.19 163.16L211.36 163.68L213.48 164.33L215.54 165.11L217.53 166.01L219.46 167.02L221.31 168.15L223.09 169.39L224.78 170.73L226.39 172.17L227.91 173.71L229.33 175.33L230.65 177.04L231.87 178.83L232.98 180.7L233.98 182.64L234.86 184.64L235.61 186.71L236.24 188.83L236.74 191.01L237.1 193.23L237.31 195.5L237.39 197.81L237.39 345.43L202.39 345.43L202.39 285L88.58 285L88.58 345.43L53.58 345.43L53.58 197.81L53.65 195.5L53.87 193.23L54.23 191.01L54.73 188.83L55.35 186.71L56.11 184.64L56.99 182.64L57.98 180.7L59.09 178.83L60.31 177.04L61.63 175.33L63.06 173.71L64.57 172.17L66.18 170.73L67.88 169.39L69.66 168.15L71.51 167.02L73.44 166.01L75.43 165.11L77.49 164.33L79.61 163.68L81.78 163.16L84 162.77L86.27 162.53L88.57 162.43L88.58 162.43L88.58 162.81L202.39 162.81L202.39 162.43L202.39 162.43L204.7 162.53ZM202.39 250L202.39 197.81L88.58 197.43L88.58 250L202.39 250Z"
              id="aE5RhQwCt"></path>
    </defs>
    <use xlink:href="#g5L2Wm362N" opacity="1" fill="#ffffff" fill-opacity="1"></use>

    <use xlink:href="#aE2zNVVj" opacity="1" fill="#e78800" fill-opacity="1"></use>

    <use xlink:href="#b5HMPKSQX" opacity="1" fill="#2974e0" fill-opacity="1"></use>

    <use xlink:href="#aE5RhQwCt" opacity="1" fill="#000000" fill-opacity="1"></use>

</svg>