<svg version="1.1" xmlns="http://www.w3.org/2000/svg" xmlns:xlink="http://www.w3.org/1999/xlink" preserveAspectRatio="xMidYMid meet" viewBox="0 0 500 500" width="500" height="500">
    <defs>
        <path d="M500 250C500 387.98 387.98 500 250 500C112.02 500 0 387.98 0 250C0 112.02 112.02 0 250 0C387.98 0 500 112.02 500 250Z" id="e9A5EaDsI"></path>
        <path d="M275 450C275 463.8 263.8 475 250 475C236.2 475 225 463.8 225 450C225 436.2 236.2 425 250 425C263.8 425 275 436.2 275 450Z" id="f1O5lKWB3"></path>
        <path d="M275 50C275 63.8 263.8 75 250 75C236.2 75 225 63.8 225 50C225 36.2 236.2 25 250 25C263.8 25 275 36.2 275 50Z" id="bk3VPv0km"></path>
        <path d="M313.43 310.43L447.22 310.43L447.22 345.43L264.22 345.43L264.22 310.43L397.37 196.35L264.22 196.35L264.22 162.43L447.22 162.43L447.22 196.35L313.43 310.43ZM204.7 162.53L206.97 162.77L209.19 163.16L211.36 163.68L213.48 164.33L215.54 165.11L217.53 166.01L219.46 167.02L221.31 168.15L223.09 169.39L224.78 170.73L226.39 172.17L227.91 173.71L229.33 175.33L230.65 177.04L231.87 178.83L232.98 180.7L233.98 182.64L234.86 184.64L235.61 186.71L236.24 188.83L236.74 191.01L237.1 193.23L237.31 195.5L237.39 197.81L237.39 345.43L202.39 345.43L202.39 285L88.58 285L88.58 345.43L53.58 345.43L53.58 197.81L53.65 195.5L53.87 193.23L54.23 191.01L54.73 188.83L55.35 186.71L56.11 184.64L56.99 182.64L57.98 180.7L59.09 178.83L60.31 177.04L61.63 175.33L63.06 173.71L64.57 172.17L66.18 170.73L67.88 169.39L69.66 168.15L71.51 167.02L73.44 166.01L75.43 165.11L77.49 164.33L79.61 163.68L81.78 163.16L84 162.77L86.27 162.53L88.57 162.43L88.58 162.43L88.58 162.81L202.39 162.81L202.39 162.43L202.39 162.43L204.7 162.53ZM202.39 250L202.39 197.81L88.58 197.43L88.58 250L202.39 250Z"
              id="augNgCCbR"></path>
    </defs>
    <use xlink:href="#e9A5EaDsI" opacity="1" fill="#000000" fill-opacity="1"></use>

    <use xlink:href="#f1O5lKWB3" opacity="1" fill="#e78800" fill-opacity="1"></use>

    <use xlink:href="#bk3VPv0km" opacity="1" fill="#2974e0" fill-opacity="1"></use>

    <use xlink:href="#augNgCCbR" opacity="1" fill="#ffffff" fill-opacity="1"></use>

</svg>